# xmcd CD database file
#
# Track frame offsets:
#	150
#	16322
#	31569
#	49386
#	66353
#	82560
#	95730
#	112926
#	130457
#	144415
#
# Disc length: 2172 seconds
#
# Revision: 0
# Processed by: cddbd v1.5.2PL0 Copyright (c) Steve Scherf et al.
# Submitted via: CDex 1.70beta2
#
DISCID=7b087a0a
DTITLE=Nashville Tribute Band - The Greatest Country Songs of Love - Disc 2 - This Kiss
DYEAR=2008
DGENRE=Country
TTITLE0=Good Morning Beautiful
TTITLE1=ICantSleep
TTITLE2=Unbroken
TTITLE3=Austin
TTITLE4=You're Still The One
TTITLE5=This Kiss
TTITLE6=But For The Grace Of God
TTITLE7=Let's Be Us Again
TTITLE8=Wrapped Around
TTITLE9=Perfect
EXTD=YEAR: 2008
EXTT0=
EXTT1=
EXTT2=
EXTT3=
EXTT4=
EXTT5=
EXTT6=
EXTT7=
EXTT8=
EXTT9=
PLAYORDER=
